# xmcd
#
# Track frame offsets:
#	150
#	20658
#	43263
#	65143
#	79883
#	98803
#	118980
#	143934
#	157948
#	173326
#	204117
#	219149
#	243972
#	262022
#	297722
#
# Disc length: 4180 seconds
#
# Revision: 1
# Processed by: cddbd v1.4PL0 Copyright (c) Steve Scherf et al.
# Submitted via: CDmax 2.0
#
DISCID=db10520f
DTITLE=Ryan Adams - The Brewery, Raleigh 10.22.99
DYEAR=1900
DGENRE=Country
TTITLE0=Born Yesterday
TTITLE1=Funny How I'm Losing You
TTITLE2=To Be The One
TTITLE3=Hey There, Mrs. Lovely
TTITLE4=Oh My Sweet Valentine
TTITLE5=Statuettes With Wounds
TTITLE6=Dancing With The Women At The Bar
TTITLE7=My Heart Is Broken
TTITLE8=The Battle
TTITLE9=Helpless
TTITLE10=You're Still On My Mind
TTITLE11=Burning Bed
TTITLE12=Cold Steel Brace
TTITLE13=16 Days
TTITLE14=Avenues
EXTD=
EXTT0=
EXTT1=
EXTT2=
EXTT3=
EXTT4=
EXTT5=
EXTT6=
EXTT7=
EXTT8=
EXTT9=
EXTT10=
EXTT11=
EXTT12=
EXTT13=
EXTT14=
PLAYORDER=
